Some handcam video from her concert.
Average quality
Images:  
http://bayimg.com/aAneeaaDG

MI
General
Complete name                    : Eyes Open (Live Acoustic World Premiere) - Taylor Swift, Auckland, New Zealand March 17, 2012.mp4
Format                           : MPEG-4
Format profile                   : Base Media / Version 2
Codec ID                         : mp42
File size                        : 85.5 MiB
Duration                         : 4mn 48s
Overall bit rate mode            : Variable
Overall bit rate                 : 2 484 Kbps
Encoded date                     : UTC 2012-03-16 14:53:08
Tagged date                      : UTC 2012-03-16 14:53:08
gsst                             : 0
gstd                             : 288925
gssd                             : BADC206E1HH1332119056656630

Video
ID                               : 1
Format                           : AVC
Format/Info                      : Advanced Video Codec
Format profile                   : High@L3.1
Format settings, CABAC           : Yes
Format settings, ReFrames        : 1 frame
Format settings, GOP             : M=1, N=30
Codec ID                         : avc1
Codec ID/Info                    : Advanced Video Coding
Duration                         : 4mn 48s
Bit rate                         : 2 329 Kbps
Maximum bit rate                 : 4 462 Kbps
Width                            : 1 280 pixels
Height                           : 720 pixels
Display aspect ratio             : 16:9
Frame rate mode                  : Constant
Frame rate                       : 30.000 fps
Color space                      : YUV
Chroma subsampling               : 4:2:0
Bit depth                        : 8 bits
Scan type                        : Progressive
Bits/(Pixel*Frame)               : 0.084
Stream size                      : 80.2 MiB (94%)
Tagged date                      : UTC 2012-03-16 14:53:08

Audio
ID                               : 2
Format                           : AAC
Format/Info                      : Advanced Audio Codec
Format profile                   : LC
Codec ID                         : 40
Duration                         : 4mn 48s
Bit rate mode                    : Variable
Bit rate                         : 152 Kbps
Maximum bit rate                 : 176 Kbps
Channel(s)                       : 2 channels
Channel positions                : Front: L R
Sampling rate                    : 44.1 KHz
Compression mode                 : Lossy
Stream size                      : 5.23 MiB (6%)
Title                            : IsoMedia File Produced by Google, 5-11-2011
Encoded date                     : UTC 2012-03-16 14:53:08
Tagged date                      : UTC 2012-03-16 14:53:08